<svg width="24" height="24" viewBox="0 2 24 24" fill="none" xmlns="http://www.w3.org/2000/svg"><rect width="24" height="24" fill="transparent"></rect><path d="M17.569 12.6254C17.597 15.652 20.2179 16.6592 20.247 16.672C20.2248 16.743 19.8282 18.1073 18.8662 19.5166C18.0345 20.735 17.1714 21.9488 15.8117 21.974C14.4756 21.9986 14.046 21.1799 12.5185 21.1799C10.9915 21.1799 10.5142 21.9489 9.2495 21.9987C7.93704 22.0485 6.93758 20.6812 6.09906 19.4673C4.38557 16.9842 3.0761 12.4508 4.83438 9.39061C5.70786 7.87092 7.26882 6.90859 8.96311 6.88391C10.2519 6.85927 11.4683 7.753 12.2562 7.753C13.0436 7.753 14.5219 6.67821 16.0759 6.83605C16.7265 6.8632 18.5527 7.09947 19.7253 8.81993C19.6309 8.87864 17.5463 10.095 17.569 12.6254ZM15.058 5.1933C15.7548 4.34789 16.2238 3.171 16.0959 2C15.0915 2.04046 13.877 2.67085 13.1566 3.5158C12.5109 4.26404 11.9455 5.46164 12.0981 6.60946C13.2176 6.69628 14.3612 6.03925 15.058 5.1933Z" fill="black"></path></svg>