<svg xmlns="http://www.w3.org/2000/svg" viewBox="0 0 24 24" data-supported-dps="24x24" fill="currentColor" class="mercado-match" width="24" height="24" focusable="false">
  <path d="M2 2.71l4 4a5.06 5.06 0 00-.18.77L5 13l-1.83 2.17A4.52 4.52 0 002 18v1h8.28a2 2 0 103.44 0h4.57l3 3 .71-.71L2.71 2zm5.68 5.67L12.29 13H7zM13.29 14l3 3h-12c.12-.19.24-.37.38-.55L6.77 14zM22 18v1h-.88l-1.2-1.2a2.4 2.4 0 00-.65-1.38l-2-2.42h-1.15l-1-1H17l-.76-5.28A4.27 4.27 0 0012 4a4.26 4.26 0 00-3.71 2.17L6.85 4.73A6.25 6.25 0 0112 2a6.27 6.27 0 016.21 5.44L19 13l1.82 2.17A4.53 4.53 0 0122 18z"></path>
</svg>